<svg width="81" height="108" viewBox="0 0 81 108" fill="none" xmlns="http://www.w3.org/2000/svg">
<path d="M26.6582 94.3291H54.3417C46.7651 102.703 40.4926 107.658 40.4926 107.658C40.4926 107.658 34.2348 102.703 26.6582 94.3291Z" fill="white"/>
<path d="M25.8597 23.5823C23.9218 23.5866 22.0229 24.1141 20.3731 25.1065C18.7233 26.099 17.3869 27.5176 16.5118 29.2054C15.6367 30.8933 15.257 32.7845 15.4147 34.6699C15.5725 36.5554 16.2615 38.3614 17.4055 39.8883C18.5495 41.4152 20.104 42.6034 21.8969 43.3214C23.6898 44.0394 25.6512 44.2592 27.5642 43.9565C29.4771 43.6538 31.267 42.8404 32.7357 41.6064C34.2045 40.3723 35.2949 38.7656 35.8862 36.9641C35.8832 36.6214 35.6972 28.1874 25.8597 23.5823ZM25.9018 38.1681C25.0209 38.1681 24.1599 37.9132 23.4275 37.4355C22.6951 36.9578 22.1243 36.2788 21.7872 35.4845C21.4501 34.6901 21.3619 33.816 21.5338 32.9727C21.7056 32.1294 22.1298 31.3548 22.7526 30.7468C23.3755 30.1388 24.169 29.7247 25.0329 29.557C25.8968 29.3892 26.7923 29.4753 27.606 29.8044C28.4198 30.1334 29.1154 30.6906 29.6047 31.4055C30.0941 32.1205 30.3553 32.961 30.3553 33.8208C30.3553 34.9738 29.8861 36.0796 29.0509 36.8948C28.2157 37.7101 27.0829 38.1681 25.9018 38.1681Z" fill="white"/>
<path d="M45.1143 36.8967C45.6935 38.706 46.7747 40.3229 48.2377 41.5679C49.7007 42.8128 51.4883 43.637 53.4018 43.9489C55.3154 44.2608 57.2799 44.0482 59.0773 43.3346C60.8746 42.6211 62.4343 41.4347 63.5831 39.9071C64.7319 38.3795 65.4248 36.5705 65.5848 34.6813C65.7449 32.792 65.3657 30.8964 64.4896 29.205C63.6135 27.5136 62.2747 26.0926 60.6219 25.1001C58.9691 24.1075 57.067 23.5821 55.1271 23.5823C45.7138 27.9941 45.1412 35.9212 45.1143 36.8967ZM55.1121 29.4793C55.9922 29.4787 56.8528 29.7333 57.5848 30.2107C58.3169 30.6882 58.8876 31.3671 59.2246 32.1616C59.5617 32.9561 59.6501 33.8305 59.4785 34.6741C59.307 35.5176 58.8832 36.2925 58.2608 36.9007C57.6385 37.5088 56.8455 37.9229 55.9822 38.0906C55.119 38.2582 54.2242 38.1719 53.4112 37.8425C52.5982 37.5131 51.9034 36.9554 51.4148 36.2401C50.9262 35.5247 50.6657 34.6838 50.6663 33.8237C50.6671 32.6728 51.1349 31.5691 51.9672 30.7547C52.7995 29.9403 53.9283 29.4816 55.1061 29.4793H55.1121Z" fill="white"/>
<path d="M81 40.8835C81 58.7252 71.476 75.0594 61.6653 87.1519H19.3436C9.52397 75.0594 1.57474e-05 58.7252 1.57474e-05 40.8835C-0.00567365 34.5084 1.53036 28.2245 4.47977 22.557C6.85128 24.2095 9.43827 25.5359 12.17 26.5002C11.1588 28.5622 10.494 30.7736 10.2019 33.0474C8.03072 50.9985 22.4466 52.9435 40.5149 52.9435C58.5833 52.9435 72.9931 50.9985 70.8219 33.0474C70.5312 30.7685 69.8632 28.5525 68.8449 26.4883C71.5723 25.5241 74.1576 24.204 76.5321 22.5629C79.478 28.2291 81.01 34.5112 81 40.8835V40.8835Z" fill="white"/>
<path d="M4.11483 78.9493H76.8882C77.9787 78.9493 79.0246 79.3813 79.7957 80.1501C80.5668 80.919 81 81.9618 81 83.0491V83.0491C81.0004 83.5877 80.8943 84.1212 80.6879 84.6189C80.4814 85.1167 80.1786 85.569 79.7967 85.95C79.4149 86.331 78.9615 86.6333 78.4624 86.8395C77.9633 87.0457 77.4284 87.1519 76.8882 87.1519H4.11483C3.57446 87.1519 3.03939 87.0457 2.54015 86.8396C2.04092 86.6334 1.5873 86.3312 1.2052 85.9502C0.823108 85.5692 0.520012 85.1169 0.313222 84.6192C0.106433 84.1214 0 83.5879 0 83.0491C-1.43914e-07 82.5105 0.106455 81.9771 0.313282 81.4795C0.520108 80.9819 0.823249 80.5298 1.20539 80.1491C1.58752 79.7683 2.04116 79.4664 2.54038 79.2606C3.03959 79.0547 3.5746 78.9489 4.11483 78.9493Z" fill="#FFCC80"/>
<path d="M81 2.05311C78.0133 4.98612 75.0417 6.02325 71.8209 6.02325C64.0676 6.02325 54.8645 0 40.5045 0C26.1445 0 16.9414 6.02325 9.1791 6.02325C5.95831 6.02325 2.98966 4.98914 0 2.05311C0 12.2521 6.55864 19.8054 20.3483 22.3997H20.3093C22.2665 22.845 24.169 23.5061 25.9824 24.3712C35.8219 29.1245 36.008 37.8298 36.011 38.1836V38.2047L40.4775 45.1139L44.98 38.2319C44.98 38.2319 44.98 38.1896 44.98 38.1231C45.013 37.1162 45.5803 28.934 55.0056 24.3803C56.8176 23.5176 58.718 22.8575 60.6727 22.4118H60.6487C74.4444 19.8114 81 12.2582 81 2.05311Z" fill="#FFCC80"/>
</svg>
