<svg width="25" height="25" viewBox="0 0 25 25" fill="none" xmlns="http://www.w3.org/2000/svg">
<path d="M14.6014 25H5.8612C2.63035 25 0.00183105 22.3715 0.00183105 19.1406V5.85938C0.00183105 2.62852 2.63035 0 5.8612 0H14.7967C15.3361 0 15.7733 0.437207 15.7733 0.976562C15.7733 1.51592 15.3361 1.95312 14.7967 1.95312H5.8612C3.7073 1.95312 1.95496 3.70547 1.95496 5.85938V19.1406C1.95496 21.2945 3.7073 23.0469 5.8612 23.0469H14.6014C16.7553 23.0469 18.5077 21.2945 18.5077 19.1406V13.2812C18.5077 12.7419 18.9449 12.3047 19.4842 12.3047C20.0236 12.3047 20.4608 12.7419 20.4608 13.2812V19.1406C20.4608 22.3715 17.8323 25 14.6014 25ZM14.5975 11.5533L17.3643 11.0003C18.7364 10.726 19.9846 10.0581 20.9739 9.0687L23.9578 6.08486C25.3476 4.69512 25.3476 2.43374 23.9578 1.04399C22.568 -0.345801 20.3067 -0.345801 18.9169 1.04399L15.9331 4.02783C14.9437 5.01719 14.2758 6.26538 14.0015 7.6375L13.4485 10.4043C13.3845 10.7245 13.4847 11.0554 13.7155 11.2862C13.9005 11.4712 14.1497 11.5723 14.4061 11.5723C14.4697 11.5723 14.5339 11.5661 14.5975 11.5533ZM22.5768 2.4251C22.8811 2.72944 23.0487 3.13408 23.0487 3.56445C23.0487 3.99482 22.8811 4.39951 22.5768 4.70381L19.5929 7.68765C18.8772 8.40342 17.9742 8.88662 16.9816 9.08501L15.6509 9.35098L15.9168 8.02031C16.1152 7.02764 16.5984 6.12461 17.3142 5.40889L20.298 2.42505C20.6024 2.1207 21.007 1.95308 21.4374 1.95308C21.8677 1.95308 22.2724 2.12075 22.5768 2.4251Z" fill="#FFCC80"/>
<path d="M15.577 17.1875H4.9325C4.39314 17.1875 3.95593 16.7503 3.95593 16.2109C3.95593 15.6716 4.39314 15.2344 4.9325 15.2344H15.577C16.1164 15.2344 16.5536 15.6716 16.5536 16.2109C16.5536 16.7503 16.1164 17.1875 15.577 17.1875ZM10.3036 18.8965C9.62942 18.8965 9.08289 19.443 9.08289 20.1172C9.08289 20.7914 9.62942 21.3379 10.3036 21.3379C10.9778 21.3379 11.5243 20.7914 11.5243 20.1172C11.5243 19.443 10.9778 18.8965 10.3036 18.8965Z" fill="#FFCC80"/>
</svg>